<svg width="176" height="195" viewBox="0 0 176 195" fill="none" xmlns="http://www.w3.org/2000/svg">
<g id="Grupo 699">
<g id="Grupo 684">
<path id="Caminho 309" opacity="0.7" d="M7.95972 122.119C7.95972 122.119 21.7154 154.884 45.0733 172.168C68.4315 189.454 99.8616 189.986 124.417 172.005C148.972 154.025 148.303 116.94 165.065 86.8818C181.827 56.8234 181.01 22.5494 150.703 6.15393C120.395 -10.2425 107.287 11.1219 70.8713 12.8437C34.4552 14.5649 -20.6851 44.9812 7.95972 122.119Z" fill="#88D9A4"/>
<path id="Caminho 310" opacity="0.7" d="M7.95972 122.119C7.95972 122.119 21.7154 154.884 45.0733 172.168C68.4315 189.454 99.8616 189.986 124.417 172.005C148.972 154.025 148.303 116.94 165.065 86.8818C181.827 56.8234 181.01 22.5494 150.703 6.15393C120.395 -10.2425 107.287 11.1219 70.8713 12.8437C34.4552 14.5649 -20.6851 44.9812 7.95972 122.119Z" fill="#B0C6BC"/>
</g>
<ellipse id="Elipse 62" cx="86.7989" cy="186.346" rx="67.1182" ry="7.76196" fill="#B0C6BC" fill-opacity="0.15"/>
<g id="Grupo 698">
<path id="Caminho 311" d="M65.2799 68.8729C65.2799 68.8729 63.1126 63.3144 57.8689 60.7651C52.6251 58.2159 39.2728 65.6154 38.0488 68.7487C36.8248 71.8821 41.44 71.1747 40.272 73.4653C39.1041 75.756 23.6193 79.6297 21.5866 84.7389C19.5533 89.8479 24.1464 92.0152 23.3039 94.4972C22.4619 96.9791 16.9034 101.683 19.4187 107.097C21.9337 112.509 33.1521 109.197 36.5993 108.242C40.0465 107.288 38.1827 109.871 39.4065 111.813C40.6304 113.756 49.4926 111.504 52.5577 108.664C55.6237 105.823 54.351 111.851 57.3384 111.054C58.4325 110.762 60.9892 105.301 63.4597 96.1608C65.9312 87.0197 67.6158 76.9806 65.2799 68.8729Z" fill="#313D42"/>
<path id="Caminho 312" d="M49.545 139.496C49.545 139.496 47.0315 141.571 43.7732 144.917C40.5152 148.263 35.6622 159.684 34.4885 161.453C33.3149 163.222 30.7924 165.429 30.7924 165.429C30.7924 165.429 26.3256 165.131 26.1245 166.173C25.9225 167.216 25.7912 169.187 25.1957 170.202C24.6005 171.218 23.4527 172.593 23.9953 174.345C24.5389 176.096 25.2128 177.857 26.1674 177.393C27.1221 176.929 27.4288 176.29 28.2439 173.969C29.0584 171.648 35.724 166.682 38.0533 163.406C40.3829 160.131 49.142 151.477 50.2806 150.234C51.4195 148.99 53.2413 149.375 53.9859 144.146C54.7304 138.918 52.0328 137.814 49.545 139.496Z" fill="white" stroke="#313D42" stroke-linecap="round" stroke-linejoin="round"/>
<path id="Caminho 313" d="M50.2808 150.234C51.4196 148.99 53.2415 149.375 53.986 144.146C54.7306 138.918 52.0329 137.814 49.5452 139.496C49.5452 139.496 47.0317 141.571 43.7734 144.917C40.9021 147.865 36.7955 157.079 35.0566 160.439C35.6632 161.325 36.704 162.206 38.4478 162.88C41.2332 159.291 49.198 151.416 50.2808 150.234Z" fill="#88D9A4" stroke="#313D42"/>
<path id="Caminho 314" d="M28.7427 168.458L29.914 165.395C28.6033 165.367 26.2688 165.425 26.1245 166.173C25.9225 167.215 25.7912 169.186 25.1957 170.201C24.6005 171.218 23.4527 172.593 23.9953 174.344C24.5389 176.096 25.2128 177.857 26.1674 177.393C27.1221 176.928 27.4288 176.289 28.2439 173.968C28.6081 172.929 30.1459 171.36 31.9418 169.65C30.7526 168.386 28.7427 168.458 28.7427 168.458Z" fill="#B2B2B2" stroke="#313D42" stroke-linecap="round" stroke-linejoin="round"/>
<path id="Caminho 315" d="M56.4475 84.2947C56.4475 84.2947 51.0391 83.2103 49.4947 86.2098C47.9505 89.2084 52.8439 102.667 53.0563 104.129C53.2688 105.591 46.4402 110.306 44.539 115.556C42.6378 120.807 43.873 125.542 46.1101 132.309C48.3472 139.076 50.6118 142.329 49.9943 145.39C49.3763 148.451 49.4242 152.383 50.4672 155.348C51.5104 158.313 57.296 172.349 57.1719 174.201C57.0485 176.055 54.8108 178.593 54.8593 179.424C54.9073 180.255 59.176 182.917 60.7204 184.572C62.264 186.226 65.2975 187.255 65.565 186.343C65.8328 185.429 63.1084 182.869 62.6484 180.46C62.1894 178.052 60.5834 172.671 60.2816 169.446C59.979 166.22 57.743 148.596 57.454 146.715C57.1661 144.835 57.3584 141.952 57.3584 141.952C57.3584 141.952 62.8357 132.7 63.7418 125.315C64.6478 117.931 65.334 107.637 66.0136 105.2C66.6934 102.763 68.1964 97.2804 68.1964 97.2804C68.1964 97.2804 69.2192 92.7984 68.67 88.6261C68.1217 84.4529 61.9719 83.6297 59.9953 83.8074C58.0186 83.9858 56.4475 84.2947 56.4475 84.2947Z" fill="white" stroke="#313D42" stroke-linecap="round" stroke-linejoin="round"/>
<g id="Grupo 686">
<path id="Caminho 316" d="M59.9976 166.865C59.305 160.915 57.6958 148.291 57.454 146.715C57.1661 144.835 57.3584 141.952 57.3584 141.952C57.3584 141.952 62.8357 132.701 63.7419 125.316C64.0127 123.108 64.2632 120.64 64.5009 118.199C60.7487 118.048 52.9987 117.21 45.7549 113.13C45.2592 113.918 44.8374 114.731 44.539 115.557C42.6378 120.807 43.873 125.542 46.1101 132.309C48.3472 139.076 50.6118 142.33 49.9943 145.391C49.3763 148.452 49.4242 152.384 50.4672 155.349C51.0999 157.146 53.4716 163.005 55.2164 167.758C56.4645 167.908 58.0998 167.779 59.9976 166.865Z" fill="#88D9A4"/>
<g id="Grupo 685">
<path id="Caminho 317" opacity="0.3" d="M57.737 119.619C57.1392 123.603 55.9437 121.413 55.5455 120.615C55.1471 119.819 51.3626 115.038 51.5613 116.831C51.7609 118.624 54.3506 138.743 55.5455 145.117C56.5649 150.554 58.1627 160.768 59.1061 167.241C59.3964 167.133 59.6917 167.013 59.9966 166.866C59.3039 160.916 57.6948 148.292 57.453 146.716C57.1651 144.836 57.3574 141.953 57.3574 141.953C57.3574 141.953 62.8339 132.701 63.7408 125.316C64.0117 123.109 64.2622 120.64 64.4999 118.2C62.9379 118.137 60.6764 117.95 58.0524 117.464C57.9429 118.224 57.8368 118.952 57.737 119.619Z" fill="#313D42"/>
<path id="Caminho 318" d="M55.6328 123.407C55.6328 123.407 56.7976 135.626 57.0255 140.127" stroke="#313D42" stroke-linecap="round" stroke-linejoin="round"/>
</g>
<path id="Caminho 320" d="M59.9976 166.865C59.305 160.915 57.6958 148.291 57.454 146.715C57.1661 144.835 57.3584 141.952 57.3584 141.952C57.3584 141.952 62.8357 132.701 63.7419 125.316C64.0127 123.108 64.2632 120.64 64.5009 118.199C60.7487 118.048 52.9987 117.21 45.7549 113.13C45.2592 113.918 44.8374 114.731 44.539 115.557C42.6378 120.807 43.873 125.542 46.1101 132.309C48.3472 139.076 50.6118 142.33 49.9943 145.391C49.3763 148.452 49.4242 152.384 50.4672 155.349C51.0999 157.146 53.4716 163.005 55.2164 167.758C56.4645 167.908 58.0998 167.779 59.9976 166.865Z" stroke="#313D42"/>
</g>
<g id="Grupo 688">
<path id="Caminho 321" d="M44.124 116.897C46.5922 119.552 52.797 124.389 64.0649 122.484C64.8152 115.521 65.4162 107.338 66.0123 105.201C66.6921 102.764 68.1951 97.2814 68.1951 97.2814C68.1951 97.2814 69.2179 92.7994 68.6687 88.627C68.1204 84.4539 61.9706 83.6307 59.994 83.8083C58.0173 83.9868 56.4462 84.2957 56.4462 84.2957C56.4462 84.2957 51.0378 83.2113 49.4934 86.2108C47.9492 89.2094 52.8426 102.668 53.055 104.13C53.2675 105.592 46.4389 110.307 44.5377 115.557C44.3745 116.007 44.2424 116.453 44.124 116.897Z" fill="#808080"/>
<g id="Grupo 687">
<path id="Caminho 322" opacity="0.3" d="M68.669 88.6263C68.1207 84.4531 61.9709 83.629 59.9943 83.8076C58.0176 83.986 56.4465 84.2949 56.4465 84.2949C56.4465 84.2949 56.1999 84.2454 55.7993 84.1977L56.3427 86.9498C56.3427 86.9498 62.5177 92.9259 62.7163 96.3123C62.9159 99.6985 60.3259 102.488 59.7291 106.073C59.1313 109.659 58.334 115.635 57.737 119.618C57.1392 123.603 55.9437 121.412 55.5455 120.614C55.1471 119.818 51.3626 115.037 51.5613 116.83C51.6173 117.329 51.8581 119.251 52.2021 121.898C55.2859 122.87 59.2026 123.305 64.0652 122.483C64.8155 115.521 65.4165 107.338 66.0126 105.2C66.6924 102.764 68.1954 97.2806 68.1954 97.2806C68.1954 97.2806 69.2181 92.7986 68.669 88.6263Z" fill="#313D42"/>
</g>
<path id="Caminho 324" d="M44.124 116.897C46.5922 119.552 52.797 124.389 64.0649 122.484C64.8152 115.521 65.4162 107.338 66.0123 105.201C66.6921 102.764 68.1951 97.2814 68.1951 97.2814C68.1951 97.2814 69.2179 92.7994 68.6687 88.627C68.1204 84.4539 61.9706 83.6307 59.994 83.8083C58.0173 83.9868 56.4462 84.2957 56.4462 84.2957C56.4462 84.2957 51.0378 83.2113 49.4934 86.2108C47.9492 89.2094 52.8426 102.668 53.055 104.13C53.2675 105.592 46.4389 110.307 44.5377 115.557C44.3745 116.007 44.2424 116.453 44.124 116.897Z" stroke="#313D42" stroke-linecap="round" stroke-linejoin="round"/>
</g>
<path id="Caminho 325" d="M53.6055 81.9337C53.6055 81.9337 54.4223 83.6426 54.5593 84.6858C54.6964 85.7288 55.8148 87.5619 57.476 89.0169C59.1364 90.4712 60.1592 89.0924 60.0838 87.1222C60.0083 85.1529 58.979 80.4307 58.979 80.4307C58.979 80.4307 55.5473 82.2703 53.6055 81.9337Z" fill="white" stroke="#313D42" stroke-linecap="round" stroke-linejoin="round"/>
<g id="Grupo 692">
<path id="Caminho 326" d="M48.8497 74.172C48.8497 74.172 47.724 73.9936 47.642 75.2289C47.5592 76.4642 49.6941 77.0206 49.6941 77.0206L48.8497 74.172Z" fill="white" stroke="#313D42" stroke-linecap="round" stroke-linejoin="round"/>
<g id="Grupo 690">
<path id="Caminho 327" d="M56.3031 66.2939C56.3031 66.2939 52.7335 71.7429 49 73.4584C49 73.4584 49.5216 79.5943 51.6628 81.5985C53.804 83.6019 57.3455 83.2183 59.4186 81.5985C61.4909 79.9787 60.5922 70.1986 60.5922 70.1986C60.5922 70.1986 57.394 68.5381 56.3031 66.2939Z" fill="white"/>
<g id="Grupo 689">
<path id="Caminho 328" opacity="0.3" d="M56.3022 66.2949C56.3022 66.2949 56.2681 66.346 56.205 66.4393L56.2456 67.1433C56.2456 67.1433 58.4177 71.6855 58.4177 77.0177C58.4177 79.884 57.2755 81.7732 56.1279 82.9144C57.3446 82.77 58.5191 82.3011 59.4169 81.5995C61.49 79.9797 60.5914 70.1995 60.5914 70.1995C60.5914 70.1995 57.3931 68.5391 56.3022 66.2949Z" fill="#313D42"/>
</g>
<path id="Caminho 330" d="M56.3031 66.2939C56.3031 66.2939 52.7335 71.7429 49 73.4584C49 73.4584 49.5216 79.5943 51.6628 81.5985C53.804 83.6019 57.3455 83.2183 59.4186 81.5985C61.4909 79.9787 60.5922 70.1986 60.5922 70.1986C60.5922 70.1986 57.394 68.5381 56.3031 66.2939Z" stroke="#313D42" stroke-linecap="round" stroke-linejoin="round"/>
</g>
<g id="Grupo 691">
<path id="Caminho 331" d="M53.792 72.9512C53.792 72.9512 53.9639 73.4799 53.792 74.5019C53.6209 75.5247 52.77 75.8815 53.998 76.0673" stroke="#313D42" stroke-linecap="round" stroke-linejoin="round"/>
<path id="Caminho 332" d="M52.9609 77.6519C52.9609 77.6519 54.9651 78.6131 57.4155 75.9844" stroke="#313D42" stroke-linecap="round" stroke-linejoin="round"/>
<path id="Caminho 333" d="M50.1748 74.4674C50.1748 74.4674 50.9851 73.1769 52.694 73.9118" stroke="#313D42" stroke-linecap="round" stroke-linejoin="round"/>
<path id="Caminho 334" d="M55.8174 73.6038C55.8174 73.6038 57.7867 71.9774 59.3586 73.2192" stroke="#313D42" stroke-linecap="round" stroke-linejoin="round"/>
<path id="Caminho 335" d="M55.1924 70.5634C55.1924 70.5634 56.4478 68.7856 58.6443 69.9664" stroke="#313D42" stroke-linecap="round" stroke-linejoin="round"/>
</g>
</g>
<g id="Grupo 695">
<circle id="Elipse 63" cx="105.452" cy="67.9965" r="45.7357" transform="rotate(-18.9258 105.452 67.9965)" fill="#96E5B1"/>
<g id="Grupo 694">
<g id="Grupo 693">
<path id="Caminho 336" d="M99.031 47.8457L103.693 48.8117L105.282 50.4602L107.354 50.7784L108.013 52.7446L107.53 54.0751L106.118 54.7224L102.656 54.1567L102.562 53.7329L104.199 52.5911L103.069 50.5069L99.9726 50.0828L98.3242 48.6697L99.031 47.8457Z" fill="#8F8F8F"/>
<path id="Caminho 337" d="M136.606 90.8704L132.909 90.2459L128.447 89.6805L125.162 90.4096L121.948 90.456L118.722 91.9506L116.838 92.4804L115.673 92.7392L113.73 94.5049L111.799 95.8238L108.537 94.6574L108.621 91.5257L106.655 91.1843L104.535 91.6546L104.006 90.7714L103.794 88.8175L102.817 87.9221L101.38 88.4639L101.192 89.6171L99.414 90.1233L97.4009 88.5692L96.2005 86.1668L97.1308 82.8469L100.251 82.3764L101.263 82.9297L102.535 82.6473L103.912 81.3408L105.385 81.4592L108.021 84.3198L108.739 84.0497L107.986 81.6594L107.068 80.5289L106.833 78.4687L110.377 75.9023L110.036 71.8638L111.426 70.1101L112.262 67.3671L113.275 66.9194L115.359 64.7887L115.277 63.9176L113.604 64.4001L113.098 63.6231L111.933 63.8817L110.225 64.7059L110.767 63.1405L114.241 61.2571L114.877 60.1149L116.878 62.1167L118.043 62.8581L119.433 62.1055L118.491 60.8686L115.913 59.7735L112.734 57.4773L109.685 56.264L107.048 56.405L105.494 55.4155L103.704 55.3685L103.586 55.8396L104.057 58.9593L104.716 59.9252L104.516 63.5273L102.02 62.3025L102.008 60.7484L99.5478 60.1833L98.3353 59.2294L98.2769 56.4626L100.855 53.5548L100.503 50.9649L99.3605 51.3301L98.4066 50.5407L97.7359 49.0215L96.971 49.0807L96.9232 50.87L95.8046 51.3405L94.4517 47.7498L93.4858 47.4084L91.861 47.1017L90.354 48.3264L92.9204 49.8684L93.7444 51.5758L89.2948 49.5617L86.0098 47.289L85.1623 44.4753L82.2195 44.2393L80.406 46.0878C80.406 46.0878 79.487 46.9589 79.0044 47.2882C78.5218 47.6175 76.5556 48.2769 76.5556 48.2769L76.5321 50.1726L74.1182 50.8197L74.5887 51.9384L78.6507 51.7031L81.1587 53.4818L81.9818 57.1901L81.5454 60.734L82.5343 64.1835L80.7206 70.0349L81.8026 77.9114L83.7444 82.1501L85.8752 85.2357L87.5112 85.0945L86.6051 83.5169L85.4754 82.4333L84.4274 80.2198L85.3342 79.7956L87.6645 83.2816L89.4772 86.4369L90.0897 89.1922L92.6438 91.1817L96.8347 93.0311L102.675 93.2907L104.724 94.5041L106.371 95.917L108.537 96.6592L111.01 96.7768L113.317 96.1531C113.317 96.1531 113.447 97.2367 113.564 97.7664C113.682 98.2959 112.599 100.427 112.599 100.427L111.903 102.805L113.269 104.949L115.812 105.384L119.85 108.045L121.475 108.352L121.828 109.942L122.178 110.64C130.307 107.408 137.123 101.991 142.079 95.2422L141.963 94.462L143.671 88.6342L142.081 87.9868L136.606 90.8704Z" fill="#8F8F8F"/>
<path id="Caminho 338" d="M138.33 46.5668L136.718 44.8124L134.716 42.8105L133.587 39.7259L135.564 39.6206L135.435 38.5368L134.034 38.7372L135.082 37.9489L136.189 36.9245L135.954 35.8643L134.306 34.4514L133.528 32.2314C123.117 24.0402 109.252 20.4146 95.3111 23.5105C88.974 24.9178 83.2402 27.579 78.3089 31.1722L81.1363 32.3603L80.0762 34.5966L78.1572 35.4677L78.5806 38.3762L77.8035 38.8824L77.0029 40.2832L77.5326 42.1674L79.381 41.9792L79.0388 43.9454L80.8402 43.5454L83.0432 38.9416L82.984 37.1758L85.9039 36.3047L86.3639 34.8682L89.3657 33.8682L89.2839 31.9961L91.4859 31.3959C91.4859 31.3959 92.8867 30.1955 93.2047 30.125C93.5226 30.0545 95.1238 30.2547 95.1238 30.2547L96.9957 31.1729L99.2207 30.6789L100.87 29.0899L103.354 28.7606C103.354 28.7606 104.083 29.043 104.614 28.9254C105.143 28.8078 106.568 27.7135 106.568 27.7135L110.064 28.9383L111.548 29.61L111.9 31.1989L113.537 31.0577L113.855 29.9862L115.375 30.3165L115.456 31.1876L112.466 32.7417L114.785 34.6728L119.071 35.9447L121.13 37.7113L123.509 37.4055L123.803 36.2277L124.604 35.8279L121.378 34.3199L119.636 34.4847L120.919 33.7556L119.248 32.2363L121.025 31.7302L123.639 32.4837L124.734 34.9096L126.205 36.0283L127.841 38.8897L130.549 40.0675L131.325 43.564L134.116 44.6122L134.268 45.8011L134.257 47.2498L135.316 49.0156L135.74 49.9223L137.612 49.8403L138.059 47.8508L138.33 46.5668Z" fill="#8F8F8F"/>
<path id="Caminho 339" d="M137.339 35.5859L137.474 36.1943L137.32 38.008L137.967 39.4208L139.228 39.5856L139.675 41.5987L138.285 41.3514L139.239 47.1441L138.484 49.7576L139.991 52.5363L141.651 53.5024L142.922 59.2239L145.288 63.3687L147.524 66.4305L150.102 66.5246L150.48 64.217L150.765 63.8707C150.587 62.0012 150.293 60.1225 149.875 58.2425C147.891 49.3042 143.413 41.5638 137.339 35.5859Z" fill="#8F8F8F"/>
<path id="Caminho 340" d="M112.715 40.3599L105.038 38.8398L101.989 39.6284L101.694 41.8064L100.117 40.7112L97.9033 41.7589L98.4681 45.3027L100.681 46.2566L101.612 43.9373L103.554 45.1738L107.474 47.3055L108.793 50.2372L112.324 53.1222L116.61 51.3921L116.151 49.8263L114.798 48.2366L113.644 44.0451L114.304 42.0084L112.715 40.3599Z" fill="#8F8F8F"/>
<path id="Caminho 341" d="M118.953 41.4195L117.269 41.3486L116.15 42.8201L117.575 45.7285L118.952 45.4226L118.953 41.4195Z" fill="#8F8F8F"/>
<path id="Caminho 342" d="M129.255 41.2446L125.229 40.1372L124.205 39.0303L123.428 39.5366L124.64 41.4911L125.888 44.105L127.618 44.3878L127.842 43.8933L126.536 42.5157L129.526 42.9634L129.255 41.2446Z" fill="#8F8F8F"/>
<path id="Caminho 343" d="M106.807 86.3691L106.478 86.887L109.868 87.1347L111.469 88.3359L113.53 88.1008L114.013 86.7703L111.481 86.8878L106.807 86.3691Z" fill="#8F8F8F"/>
<path id="Caminho 344" d="M116.685 86.2881L114.601 87.418L115.107 88.195L117.862 87.5832L118.203 86.6178L117.273 86.9356L116.685 86.2881Z" fill="#8F8F8F"/>
<path id="Caminho 345" d="M99.031 47.8457L103.693 48.8117L105.282 50.4602L107.354 50.7784L108.013 52.7446L107.53 54.0751L106.118 54.7224L102.656 54.1567L102.562 53.7329L104.199 52.5911L103.069 50.5069L99.9726 50.0828L98.3242 48.6697L99.031 47.8457Z" stroke="#313D42"/>
<path id="Caminho 346" d="M136.606 90.8704L132.909 90.2459L128.447 89.6805L125.162 90.4096L121.948 90.456L118.722 91.9506L116.838 92.4804L115.673 92.7392L113.73 94.5049L111.799 95.8238L108.537 94.6574L108.621 91.5257L106.655 91.1843L104.535 91.6546L104.006 90.7714L103.794 88.8175L102.817 87.9221L101.38 88.4639L101.192 89.6171L99.414 90.1233L97.4009 88.5692L96.2005 86.1668L97.1308 82.8469L100.251 82.3764L101.263 82.9297L102.535 82.6473L103.912 81.3408L105.385 81.4592L108.021 84.3198L108.739 84.0497L107.986 81.6594L107.068 80.5289L106.833 78.4687L110.377 75.9023L110.036 71.8638L111.426 70.1101L112.262 67.3671L113.275 66.9194L115.359 64.7887L115.277 63.9176L113.604 64.4001L113.098 63.6231L111.933 63.8817L110.225 64.7059L110.767 63.1405L114.241 61.2571L114.877 60.1149L116.878 62.1167L118.043 62.8581L119.433 62.1055L118.491 60.8686L115.913 59.7735L112.734 57.4773L109.685 56.264L107.048 56.405L105.494 55.4155L103.704 55.3685L103.586 55.8396L104.057 58.9593L104.716 59.9252L104.516 63.5273L102.02 62.3025L102.008 60.7484L99.5478 60.1833L98.3353 59.2294L98.2769 56.4626L100.855 53.5548L100.503 50.9649L99.3605 51.3301L98.4066 50.5407L97.7359 49.0215L96.971 49.0807L96.9232 50.87L95.8046 51.3405L94.4517 47.7498L93.4858 47.4084L91.861 47.1017L90.354 48.3264L92.9204 49.8684L93.7444 51.5758L89.2948 49.5617L86.0098 47.289L85.1623 44.4753L82.2195 44.2393L80.406 46.0878C80.406 46.0878 79.487 46.9589 79.0044 47.2882C78.5218 47.6175 76.5556 48.2769 76.5556 48.2769L76.5321 50.1726L74.1182 50.8197L74.5887 51.9384L78.6507 51.7031L81.1587 53.4818L81.9818 57.1901L81.5454 60.734L82.5343 64.1835L80.7206 70.0349L81.8026 77.9114L83.7444 82.1501L85.8752 85.2357L87.5112 85.0945L86.6051 83.5169L85.4754 82.4333L84.4274 80.2198L85.3342 79.7956L87.6645 83.2816L89.4772 86.4369L90.0897 89.1922L92.6438 91.1817L96.8347 93.0311L102.675 93.2907L104.724 94.5041L106.371 95.917L108.537 96.6592L111.01 96.7768L113.317 96.1531C113.317 96.1531 113.447 97.2367 113.564 97.7664C113.682 98.2959 112.599 100.427 112.599 100.427L111.903 102.805L113.269 104.949L115.812 105.384L119.85 108.045L121.475 108.352L121.828 109.942L122.178 110.64C130.307 107.408 137.123 101.991 142.079 95.2422L141.963 94.462L143.671 88.6342L142.081 87.9868L136.606 90.8704Z" stroke="#313D42"/>
<path id="Caminho 347" d="M138.33 46.5668L136.718 44.8124L134.716 42.8105L133.587 39.7259L135.564 39.6206L135.435 38.5368L134.034 38.7372L135.082 37.9489L136.189 36.9245L135.954 35.8643L134.306 34.4514L133.528 32.2314C123.117 24.0402 109.252 20.4146 95.3111 23.5105C88.974 24.9178 83.2402 27.579 78.3089 31.1722L81.1363 32.3603L80.0762 34.5966L78.1572 35.4677L78.5806 38.3762L77.8035 38.8824L77.0029 40.2832L77.5326 42.1674L79.381 41.9792L79.0388 43.9454L80.8402 43.5454L83.0432 38.9416L82.984 37.1758L85.9039 36.3047L86.3639 34.8682L89.3657 33.8682L89.2839 31.9961L91.4859 31.3959C91.4859 31.3959 92.8867 30.1955 93.2047 30.125C93.5226 30.0545 95.1238 30.2547 95.1238 30.2547L96.9957 31.1729L99.2207 30.6789L100.87 29.0899L103.354 28.7606C103.354 28.7606 104.083 29.043 104.614 28.9254C105.143 28.8078 106.568 27.7135 106.568 27.7135L110.064 28.9383L111.548 29.61L111.9 31.1989L113.537 31.0577L113.855 29.9862L115.375 30.3165L115.456 31.1876L112.466 32.7417L114.785 34.6728L119.071 35.9447L121.13 37.7113L123.509 37.4055L123.803 36.2277L124.604 35.8279L121.378 34.3199L119.636 34.4847L120.919 33.7556L119.248 32.2363L121.025 31.7302L123.639 32.4837L124.734 34.9096L126.205 36.0283L127.841 38.8897L130.549 40.0675L131.325 43.564L134.116 44.6122L134.268 45.8011L134.257 47.2498L135.316 49.0156L135.74 49.9223L137.612 49.8403L138.059 47.8508L138.33 46.5668Z" stroke="#313D42"/>
<path id="Caminho 348" d="M137.339 35.5859L137.474 36.1943L137.32 38.008L137.967 39.4208L139.228 39.5856L139.675 41.5987L138.285 41.3514L139.239 47.1441L138.484 49.7576L139.991 52.5363L141.651 53.5024L142.922 59.2239L145.288 63.3687L147.524 66.4305L150.102 66.5246L150.48 64.217L150.765 63.8707C150.587 62.0012 150.293 60.1225 149.875 58.2425C147.891 49.3042 143.413 41.5638 137.339 35.5859Z" stroke="#313D42"/>
<path id="Caminho 349" d="M112.715 40.3599L105.038 38.8398L101.989 39.6284L101.694 41.8064L100.117 40.7112L97.9033 41.7589L98.4681 45.3027L100.681 46.2566L101.612 43.9373L103.554 45.1738L107.474 47.3055L108.793 50.2372L112.324 53.1222L116.61 51.3921L116.151 49.8263L114.798 48.2366L113.644 44.0451L114.304 42.0084L112.715 40.3599Z" stroke="#313D42"/>
<path id="Caminho 350" d="M118.953 41.4195L117.269 41.3486L116.15 42.8201L117.575 45.7285L118.952 45.4226L118.953 41.4195Z" stroke="#313D42"/>
<path id="Caminho 351" d="M129.255 41.2446L125.229 40.1372L124.205 39.0303L123.428 39.5366L124.64 41.4911L125.888 44.105L127.618 44.3878L127.842 43.8933L126.536 42.5157L129.526 42.9634L129.255 41.2446Z" stroke="#313D42"/>
<path id="Caminho 352" d="M106.807 86.3691L106.478 86.887L109.868 87.1347L111.469 88.3359L113.53 88.1008L114.013 86.7703L111.481 86.8878L106.807 86.3691Z" stroke="#313D42"/>
<path id="Caminho 353" d="M116.685 86.2881L114.601 87.418L115.107 88.195L117.862 87.5832L118.203 86.6178L117.273 86.9356L116.685 86.2881Z" stroke="#313D42"/>
</g>
<path id="Caminho 354" opacity="0.2" d="M119.16 23.6875C122.442 30.0238 124.299 37.2184 124.299 44.8468C124.299 70.287 103.676 90.91 78.2358 90.91C73.4104 90.91 68.7596 90.1671 64.3887 88.7906C72.0527 103.584 87.5009 113.694 105.313 113.694C130.752 113.694 151.375 93.0707 151.375 67.6313C151.375 47.0165 137.833 29.5664 119.16 23.6875Z" fill="black" stroke="#313D42" stroke-linecap="round" stroke-linejoin="round"/>
</g>
</g>
<path id="Elipse 65" opacity="0.18" d="M148.781 53.5951C156.974 77.4887 144.246 103.5 120.352 111.692C96.4586 119.885 70.4476 107.157 62.2549 83.2632C54.0623 59.3696 66.7905 33.3586 90.6841 25.166C114.578 16.9734 140.589 29.7015 148.781 53.5951Z" stroke="#313D42"/>
<g id="Grupo 697">
<path id="Caminho 355" d="M59.5994 82.3938C59.5994 82.3938 53.8698 82.2924 50.7357 84.3623C47.6024 86.4323 48.2846 88.0772 49.1915 89.7781C50.0975 91.4799 52.5923 91.771 57.0023 90.6858C61.4115 89.6012 66.8953 86.6919 70.3312 84.5554C73.7669 82.4181 84.8255 70.3449 84.8255 70.3449L87.6457 68.7673C87.6457 68.7673 90.8689 68.052 91.6297 67.6716C92.3915 67.2912 91.3499 66.888 90.7458 67.0219C90.1414 67.1565 88.1917 67.3253 88.1917 67.3253C88.1917 67.3253 91.7392 65.6779 92.0086 64.9836C92.2771 64.2902 92.187 63.887 91.3703 64.4912C90.5535 65.0955 87.7374 65.9326 87.7374 65.9326C87.7374 65.9326 92.0337 62.8252 92.123 62.2769C92.2129 61.7285 91.9218 61.3709 91.3062 61.9305C90.6905 62.4893 86.7429 64.7078 86.7429 64.7078L89.5697 60.9475C89.5697 60.9475 89.6572 59.8202 88.58 60.8307C87.6164 61.7343 86.4493 62.903 85.8897 63.2389C85.33 63.5747 83.8643 64.1115 83.8643 64.1115C83.8643 64.1115 83.6793 63.1634 84.1328 62.4668C84.5318 61.8519 85.3835 61.4812 84.5918 60.2507C84.3688 59.9036 84.0882 60.3628 83.9203 61.0335C83.7524 61.7052 81.8724 63.7086 81.8609 64.1335C81.8496 64.5585 82.6777 67.3342 82.6777 67.3342C82.6777 67.3342 75.6933 73.9584 72.3134 76.8224C68.9336 79.6872 67.8922 80.2355 67.8922 80.2355L59.5994 82.3938Z" fill="white"/>
<g id="Grupo 696">
<path id="Caminho 356" opacity="0.3" d="M57.0022 90.6855C61.4114 89.601 66.8952 86.6916 70.3311 84.5552C73.1789 82.7836 81.2566 74.1934 83.9412 71.3017L83.8935 71.0918C83.8935 71.0918 74.612 79.9781 70.6628 82.5452C66.7127 85.1124 58.0242 88.6667 55.0612 89.4566C52.0992 90.2467 49.1914 89.7778 49.1914 89.7778C50.0974 91.4796 52.593 91.7707 57.0022 90.6855Z" fill="#313D42"/>
</g>
<path id="Caminho 358" d="M59.5994 82.3938C59.5994 82.3938 53.8698 82.2924 50.7357 84.3623C47.6024 86.4323 48.2846 88.0772 49.1915 89.7781C50.0975 91.4799 52.5923 91.771 57.0023 90.6858C61.4115 89.6012 66.8953 86.6919 70.3312 84.5554C73.7669 82.4181 84.8255 70.3449 84.8255 70.3449L87.6457 68.7673C87.6457 68.7673 90.8689 68.052 91.6297 67.6716C92.3915 67.2912 91.3499 66.888 90.7458 67.0219C90.1414 67.1565 88.1917 67.3253 88.1917 67.3253C88.1917 67.3253 91.7392 65.6779 92.0086 64.9836C92.2771 64.2902 92.187 63.887 91.3703 64.4912C90.5535 65.0955 87.7374 65.9326 87.7374 65.9326C87.7374 65.9326 92.0337 62.8252 92.123 62.2769C92.2129 61.7285 91.9218 61.3709 91.3062 61.9305C90.6905 62.4893 86.7429 64.7078 86.7429 64.7078L89.5697 60.9475C89.5697 60.9475 89.6572 59.8202 88.58 60.8307C87.6164 61.7343 86.4493 62.903 85.8897 63.2389C85.33 63.5747 83.8643 64.1115 83.8643 64.1115C83.8643 64.1115 83.6793 63.1634 84.1328 62.4668C84.5318 61.8519 85.3835 61.4812 84.5918 60.2507C84.3688 59.9036 84.0882 60.3628 83.9203 61.0335C83.7524 61.7052 81.8724 63.7086 81.8609 64.1335C81.8496 64.5585 82.6777 67.3342 82.6777 67.3342C82.6777 67.3342 75.6933 73.9584 72.3134 76.8224C68.9336 79.6872 67.8922 80.2355 67.8922 80.2355L59.5994 82.3938Z" stroke="#313D42" stroke-linecap="round" stroke-linejoin="round"/>
</g>
<path id="Caminho 359" d="M61.7941 176.837L59.24 178.146L56.9129 175.287C56.2972 176.937 54.8196 178.747 54.8592 179.424C54.9071 180.254 59.1759 182.917 60.7203 184.572C62.2638 186.226 65.2974 187.255 65.5649 186.342C65.8326 185.429 63.1082 182.869 62.6482 180.46C62.4787 179.571 62.1528 178.277 61.7941 176.837Z" fill="#B2B2B2" stroke="#313D42" stroke-linecap="round" stroke-linejoin="round"/>
</g>
</g>
</svg>
