<svg width="43" height="42" viewBox="0 0 43 42" fill="none" xmlns="http://www.w3.org/2000/svg">
<path d="M34.6266 0.310547H8.37262C4.26263 0.310547 0.930664 3.64258 0.930664 7.75256V34.0065C0.930664 38.1176 4.26263 41.4485 8.37262 41.4485H34.6266C38.7366 41.4485 42.0686 38.1176 42.0686 34.0065V7.75256C42.0686 3.64258 38.7366 0.310547 34.6266 0.310547ZM21.3456 35.9976C12.9106 35.9976 6.07263 29.1595 6.07263 20.7255C6.07263 12.2905 12.9106 5.45258 21.3456 5.45258C29.7797 5.45258 36.6176 12.2905 36.6176 20.7255C36.6176 29.1595 29.7797 35.9976 21.3456 35.9976Z" fill="#B2C8BE"/>
<path d="M31.6234 20.7256C31.6234 26.4016 27.0214 31.0036 21.3454 31.0036C15.6684 31.0036 11.0664 26.4016 11.0664 20.7256H31.6234Z" fill="#B2C8BE"/>
</svg>
