<svg width="127" height="31" viewBox="0 0 127 31" fill="none" xmlns="http://www.w3.org/2000/svg">
<path d="M8.42792 1.0332V29.8392H0.668945V1.0332H8.42792Z" fill="white"/>
<path d="M29.0289 0.259766C32.3179 0.259766 35.0079 1.30075 37.0999 3.38174C39.1909 5.46176 40.2359 8.16776 40.2359 11.4968V29.8387H32.4769V13.9937C32.4769 11.9328 31.9859 10.3428 31.0059 9.22275C30.0249 8.10376 28.6418 7.54276 26.8589 7.54276C25.0939 7.54276 23.6379 8.10776 22.4879 9.23776C21.3389 10.3678 20.7639 11.9727 20.7639 14.0538V29.8387H13.0049V1.03275H20.5558V4.42175C22.4189 1.64777 25.2429 0.259766 29.0289 0.259766Z" fill="white"/>
<path d="M60.5992 0.259766C63.8892 0.259766 66.5792 1.30075 68.6702 3.38174C70.7612 5.46176 71.8062 8.16776 71.8062 11.4968V29.8387H64.0472V13.9937C64.0472 11.9328 63.5572 10.3428 62.5762 9.22275C61.5952 8.10376 60.2132 7.54276 58.4292 7.54276C56.6652 7.54276 55.2082 8.10776 54.0592 9.23776C52.9092 10.3678 52.3342 11.9727 52.3342 14.0538V29.8387H44.5762V1.03275H52.1272V4.42175C53.9892 1.64777 56.8132 0.259766 60.5992 0.259766Z" fill="white"/>
<path d="M89.4088 0.259766C93.5508 0.259766 96.9148 1.65677 99.5018 4.45175C102.088 7.24576 103.39 10.8928 103.411 15.3918C103.411 16.4018 103.361 17.2747 103.262 18.0078H82.8388C83.2348 20.0098 84.0868 21.5058 85.3948 22.4958C86.7038 23.4878 88.3188 23.9828 90.2408 23.9828C91.4898 23.9828 92.7578 23.7408 94.0458 23.2548C95.3348 22.7688 96.4938 22.0908 97.5248 21.2178L102.073 26.2128C98.9018 29.1258 94.8088 30.5828 89.7948 30.5828C85.3548 30.5828 81.7538 29.1998 78.9898 26.4348C76.2238 23.6707 74.8418 20.0287 74.8418 15.5108C74.8418 10.9718 76.1888 7.29575 78.8848 4.48175C81.5798 1.66675 85.0878 0.259766 89.4088 0.259766ZM89.3488 6.94876C87.5658 6.94876 86.1288 7.45377 85.0388 8.46475C83.9488 9.47577 83.2248 10.8928 82.8688 12.7158H95.6218C95.2648 10.8728 94.5468 9.45074 93.4668 8.44977C92.3858 7.44977 91.0138 6.94876 89.3488 6.94876Z" fill="white"/>
<path d="M122.224 0.259766C123.769 0.259766 125.117 0.467773 126.266 0.883759L125.107 8.58377C123.719 7.96976 122.153 7.66174 120.41 7.66174C118.566 7.66174 117.095 8.22275 115.995 9.34177C114.895 10.4618 114.345 12.0618 114.345 14.1428V29.8387H106.587V1.03275H114.108V4.18375C115.851 1.56775 118.556 0.259766 122.224 0.259766Z" fill="white"/>
</svg>
