<svg width="114" height="32" viewBox="0 0 114 32" fill="none" xmlns="http://www.w3.org/2000/svg">
<path d="M41.4856 7.95312V25.555H36.7031V7.95312H41.4856Z" fill="#B0C6BC"/>
<path d="M54.1642 7.51172C56.2032 7.51172 57.8344 8.13772 59.132 9.42656C60.4296 10.7154 61.0598 12.3357 61.0598 14.3978V25.5923H56.2774V15.9076C56.2774 14.6556 55.9808 13.6613 55.3876 12.9985C54.7944 12.2988 53.9417 11.9674 52.8295 11.9674C51.7544 11.9674 50.8647 12.2988 50.1232 12.9985C49.4188 13.6981 49.0481 14.6556 49.0481 15.9444V25.5923H44.2656V7.9536H48.8998V10.0157C50.1232 8.35867 51.8286 7.51172 54.1642 7.51172Z" fill="#B0C6BC"/>
<path d="M73.592 7.51172C75.631 7.51172 77.2622 8.13772 78.5598 9.42656C79.8573 10.7154 80.4876 12.3357 80.4876 14.3978V25.5923H75.7051V15.9076C75.7051 14.6556 75.4085 13.6613 74.8154 12.9985C74.2222 12.2988 73.3695 11.9674 72.2573 11.9674C71.1822 11.9674 70.2924 12.2988 69.551 12.9985C68.8466 13.6981 68.4758 14.6556 68.4758 15.9444V25.5923H63.7305V7.9536H68.3646V10.0157C69.5139 8.35867 71.2563 7.51172 73.592 7.51172Z" fill="#B0C6BC"/>
<path d="M91.3116 7.51172C93.8696 7.51172 95.9457 8.35867 97.5399 10.0894C99.134 11.7833 99.9496 14.0296 99.9496 16.7913C99.9496 17.4174 99.9126 17.9329 99.8755 18.3748H87.3077C87.5672 19.59 88.0862 20.5106 88.8647 21.0998C89.6803 21.6889 90.6813 22.0204 91.8306 22.0204C92.6091 22.0204 93.3877 21.8731 94.1662 21.5785C94.9447 21.2839 95.6862 20.8788 96.3164 20.3264L99.0969 23.3828C97.1321 25.1504 94.6111 26.071 91.534 26.071C88.7906 26.071 86.6033 25.224 84.8979 23.5301C83.1925 21.8362 82.3398 19.6268 82.3398 16.865C82.3398 14.1032 83.1554 11.8569 84.8237 10.1262C86.492 8.35867 88.6794 7.51172 91.3116 7.51172ZM91.2745 11.5992C90.1623 11.5992 89.3096 11.8938 88.6052 12.5198C87.9379 13.1458 87.493 13.9927 87.2706 15.1343H95.1301C94.9077 13.9927 94.4628 13.1458 93.7955 12.5198C93.1652 11.8938 92.3125 11.5992 91.2745 11.5992Z" fill="#B0C6BC"/>
<path d="M111.516 7.51172C112.48 7.51172 113.296 7.62219 114 7.87996L113.296 12.5934C112.443 12.2252 111.479 12.0411 110.404 12.0411C109.255 12.0411 108.365 12.3725 107.697 13.0721C107.03 13.7718 106.697 14.7292 106.697 16.018V25.6291H101.914V7.9536H106.548V9.86845C107.586 8.28502 109.255 7.51172 111.516 7.51172Z" fill="#B0C6BC"/>
<path d="M26.3961 0H5.8205C2.59513 0 0 2.57767 0 5.78136V26.2186C0 29.4223 2.59513 32 5.8205 32H26.3961C29.6215 32 32.2166 29.4223 32.2166 26.2186V5.78136C32.2537 2.57767 29.6215 0 26.3961 0ZM16.0156 27.7652C9.4166 27.7652 4.04098 22.4626 4.04098 15.8711C4.04098 9.31646 9.37953 3.97699 16.0156 3.97699C22.6147 3.97699 27.9903 9.27963 27.9903 15.8711C27.9532 22.4626 22.6147 27.7652 16.0156 27.7652Z" fill="#B0C6BC"/>
<path d="M24.0605 15.8711C24.0605 20.29 20.4644 23.8619 16.0156 23.8619C11.5668 23.8619 7.9707 20.29 7.9707 15.8711H24.0605Z" fill="#B0C6BC"/>
</svg>
