<svg width="100" height="29" viewBox="0 0 100 29" fill="none" xmlns="http://www.w3.org/2000/svg">
<path d="M36.092 7.89453V23.3135H31.9392V7.89453H36.092Z" fill="#102C33"/>
<path d="M47.1191 7.48242C48.8801 7.48242 50.3201 8.03955 51.4392 9.15259C52.5591 10.2666 53.1182 11.7146 53.1182 13.4966V23.3145H48.9651V14.8335C48.9651 13.7305 48.7031 12.8794 48.178 12.2795C47.6531 11.6804 46.9131 11.3806 45.958 11.3806C45.0142 11.3806 44.2341 11.6826 43.6191 12.2876C43.0032 12.8926 42.6951 13.7515 42.6951 14.8655V23.3145H38.5432V7.89551H42.584V9.70947C43.5811 8.22461 45.093 7.48242 47.1191 7.48242Z" fill="#102C33"/>
<path d="M64.0181 7.48242C65.7791 7.48242 67.219 8.03955 68.3381 9.15259C69.457 10.2666 70.0171 11.7146 70.0171 13.4966V23.3145H65.864V14.8335C65.864 13.7305 65.6011 12.8794 65.0762 12.2795C64.551 11.6804 63.811 11.3806 62.8562 11.3806C61.9121 11.3806 61.1321 11.6826 60.5171 12.2876C59.9021 12.8926 59.594 13.7515 59.594 14.8655V23.3145H55.4412V7.89551H59.4832V9.70947C60.48 8.22461 61.9912 7.48242 64.0181 7.48242Z" fill="#102C33"/>
<path d="M79.4392 7.48242C81.656 7.48242 83.457 8.22949 84.8411 9.72559C86.2251 11.2214 86.9231 13.1736 86.9331 15.5815C86.9331 16.1226 86.907 16.5896 86.854 16.9814H75.9221C76.134 18.0535 76.5901 18.8545 77.29 19.3845C77.9912 19.9155 78.855 20.1804 79.884 20.1804C80.553 20.1804 81.2322 20.0505 81.9211 19.7905C82.6111 19.5305 83.2312 19.1675 83.7832 18.7004L86.218 21.3735C84.52 22.9326 82.3301 23.7124 79.646 23.7124C77.269 23.7124 75.3411 22.9724 73.8621 21.4924C72.3811 20.0125 71.6421 18.0635 71.6421 15.6455C71.6421 13.2156 72.363 11.2485 73.8062 9.74146C75.249 8.2356 77.126 7.48242 79.4392 7.48242ZM79.407 11.0625C78.4521 11.0625 77.6831 11.3325 77.1001 11.8735C76.5161 12.4146 76.1292 13.1736 75.938 14.1494H82.7642C82.573 13.1626 82.1892 12.4016 81.6111 11.8655C81.0332 11.3306 80.2981 11.0625 79.407 11.0625Z" fill="#102C33"/>
<path d="M97.0032 7.48242C97.8311 7.48242 98.552 7.59351 99.167 7.81641L98.5471 11.9375C97.8042 11.6084 96.9661 11.4446 96.0332 11.4446C95.0461 11.4446 94.2581 11.7446 93.6692 12.3435C93.0811 12.9426 92.7861 13.7996 92.7861 14.9136V23.3145H88.6331V7.89551H92.6592V9.58252C93.592 8.18262 95.04 7.48242 97.0032 7.48242Z" fill="#102C33"/>
<path d="M22.9661 0.919922H5.07202C2.271 0.919922 0 3.19092 0 5.99194V23.885C0 26.687 2.271 28.957 5.07202 28.957H22.9661C25.7671 28.957 28.0381 26.687 28.0381 23.885V5.99194C28.0381 3.19092 25.7671 0.919922 22.9661 0.919922ZM13.9141 25.2419C8.16504 25.2419 3.50513 20.582 3.50513 14.833C3.50513 9.08496 8.16504 4.42505 13.9141 4.42505C19.6621 4.42505 24.322 9.08496 24.322 14.833C24.322 20.582 19.6621 25.2419 13.9141 25.2419Z" fill="#102C33"/>
<path d="M20.9192 14.832C20.9192 18.7009 17.7832 21.8369 13.9141 21.8369C10.0452 21.8369 6.90918 18.7009 6.90918 14.832H20.9192Z" fill="#102C33"/>
</svg>
