<svg width="286" height="80" viewBox="0 0 286 80" fill="none" xmlns="http://www.w3.org/2000/svg">
<path d="M103.924 19.8848V63.8894H91.9434V19.8848H103.924Z" fill="#EAECE3"/>
<path d="M135.685 18.7812C140.793 18.7812 144.88 20.3463 148.13 23.5684C151.381 26.7905 152.96 30.8411 152.96 35.9964V63.9826H140.979V39.7709C140.979 36.6409 140.236 34.1552 138.75 32.4982C137.264 30.749 135.128 29.9205 132.342 29.9205C129.649 29.9205 127.42 30.749 125.562 32.4982C123.798 34.2473 122.869 36.6409 122.869 39.863V63.9826H110.889V19.886H122.498V25.0413C125.562 20.8986 129.835 18.7812 135.685 18.7812Z" fill="#EAECE3"/>
<path d="M184.352 18.7812C189.46 18.7812 193.547 20.3463 196.797 23.5684C200.048 26.7905 201.627 30.8411 201.627 35.9964V63.9826H189.646V39.7709C189.646 36.6409 188.903 34.1552 187.417 32.4982C185.931 30.749 183.795 29.9205 181.009 29.9205C178.316 29.9205 176.087 30.749 174.229 32.4982C172.465 34.2473 171.536 36.6409 171.536 39.863V63.9826H159.648V19.886H171.257V25.0413C174.136 20.8986 178.501 18.7812 184.352 18.7812Z" fill="#EAECE3"/>
<path d="M228.743 18.7812C235.151 18.7812 240.352 20.8986 244.345 25.2254C248.339 29.4602 250.382 35.0758 250.382 41.9803C250.382 43.5453 250.289 44.8342 250.196 45.9389H218.712C219.363 48.9769 220.663 51.2784 222.613 52.7513C224.656 54.2243 227.164 55.0528 230.043 55.0528C231.993 55.0528 233.943 54.6846 235.894 53.9481C237.844 53.2116 239.701 52.199 241.28 50.8181L248.246 58.459C243.323 62.8779 237.008 65.1794 229.3 65.1794C222.427 65.1794 216.948 63.062 212.676 58.8273C208.404 54.5925 206.268 49.0689 206.268 42.1645C206.268 35.26 208.311 29.6443 212.49 25.3175C216.669 20.8986 222.149 18.7812 228.743 18.7812ZM228.65 28.9999C225.864 28.9999 223.727 29.7364 221.963 31.3014C220.291 32.8664 219.177 34.9838 218.62 37.8376H238.308C237.751 34.9838 236.637 32.8664 234.965 31.3014C233.386 29.7364 231.25 28.9999 228.65 28.9999Z" fill="#EAECE3"/>
<path d="M279.358 18.7812C281.773 18.7812 283.816 19.0574 285.581 19.7018L283.816 31.4855C281.68 30.5649 279.266 30.1046 276.572 30.1046C273.693 30.1046 271.464 30.9331 269.793 32.6823C268.121 34.4314 267.285 36.825 267.285 40.0471V64.0747H255.305V19.886H266.914V24.6731C269.514 20.7145 273.693 18.7812 279.358 18.7812Z" fill="#EAECE3"/>
<path d="M66.1248 0H14.5809C6.50104 0 0 6.44419 0 14.4534V65.5466C0 73.5558 6.50104 80 14.5809 80H66.1248C74.2046 80 80.7057 73.5558 80.7057 65.5466V14.4534C80.7985 6.44419 74.2046 0 66.1248 0ZM40.1207 69.4131C23.5895 69.4131 10.123 56.1565 10.123 39.6778C10.123 23.2911 23.4966 9.94247 40.1207 9.94247C56.6519 9.94247 70.1183 23.1991 70.1183 39.6778C70.0254 56.1565 56.6519 69.4131 40.1207 69.4131Z" fill="#EAECE3"/>
<path d="M60.2752 39.6777C60.2752 50.7249 51.2666 59.6547 40.122 59.6547C28.9773 59.6547 19.9688 50.7249 19.9688 39.6777H60.2752Z" fill="#EAECE3"/>
</svg>
